<mxfile host="app.diagrams.net" modified="2022-11-21T17:33:42.658Z" agent="5.0 (Windows NT 10.0; Win64; x64) AppleWebKit/537.36 (KHTML, like Gecko) Chrome/105.0.0.0 Safari/537.36 OPR/91.0.4516.106 (Edition Yx GX)" etag="X9rgcoJ3dmOkPJO6m_Rz" version="20.5.3" type="github">
  <diagram id="I5OYto9i9WXw8BS9Y3A2" name="Страница 1">
    <mxGraphModel dx="394" dy="1945" grid="1" gridSize="10" guides="1" tooltips="1" connect="1" arrows="1" fold="1" page="1" pageScale="1" pageWidth="827" pageHeight="1169" math="0" shadow="0">
      <root>
        <mxCell id="0" />
        <mxCell id="1" parent="0" />
        <mxCell id="fCsSd8bav656cwg4OeE4-1" value="Составить блок-схему нахождения максимального значение из двух чисел" style="text;html=1;align=center;verticalAlign=middle;resizable=0;points=[];autosize=1;strokeColor=none;fillColor=none;" parent="1" vertex="1">
          <mxGeometry x="200" y="-1020" width="440" height="30" as="geometry" />
        </mxCell>
        <mxCell id="fCsSd8bav656cwg4OeE4-10" value="" style="edgeStyle=orthogonalEdgeStyle;rounded=0;orthogonalLoop=1;jettySize=auto;html=1;" parent="1" source="fCsSd8bav656cwg4OeE4-5" target="fCsSd8bav656cwg4OeE4-9" edge="1">
          <mxGeometry relative="1" as="geometry" />
        </mxCell>
        <mxCell id="fCsSd8bav656cwg4OeE4-5" value="Start" style="ellipse;whiteSpace=wrap;html=1;" parent="1" vertex="1">
          <mxGeometry x="375" y="-920" width="120" height="80" as="geometry" />
        </mxCell>
        <mxCell id="fCsSd8bav656cwg4OeE4-12" value="" style="edgeStyle=orthogonalEdgeStyle;rounded=0;orthogonalLoop=1;jettySize=auto;html=1;" parent="1" source="fCsSd8bav656cwg4OeE4-9" target="fCsSd8bav656cwg4OeE4-11" edge="1">
          <mxGeometry relative="1" as="geometry" />
        </mxCell>
        <mxCell id="fCsSd8bav656cwg4OeE4-9" value="a, b" style="shape=parallelogram;perimeter=parallelogramPerimeter;whiteSpace=wrap;html=1;fixedSize=1;" parent="1" vertex="1">
          <mxGeometry x="375" y="-750" width="120" height="60" as="geometry" />
        </mxCell>
        <mxCell id="fCsSd8bav656cwg4OeE4-14" value="" style="edgeStyle=orthogonalEdgeStyle;rounded=0;orthogonalLoop=1;jettySize=auto;html=1;" parent="1" source="fCsSd8bav656cwg4OeE4-11" target="fCsSd8bav656cwg4OeE4-13" edge="1">
          <mxGeometry relative="1" as="geometry" />
        </mxCell>
        <mxCell id="fCsSd8bav656cwg4OeE4-18" value="" style="edgeStyle=orthogonalEdgeStyle;rounded=0;orthogonalLoop=1;jettySize=auto;html=1;" parent="1" source="fCsSd8bav656cwg4OeE4-11" target="fCsSd8bav656cwg4OeE4-17" edge="1">
          <mxGeometry relative="1" as="geometry" />
        </mxCell>
        <mxCell id="fCsSd8bav656cwg4OeE4-11" value="a &amp;gt; b" style="rhombus;whiteSpace=wrap;html=1;" parent="1" vertex="1">
          <mxGeometry x="395" y="-620" width="80" height="80" as="geometry" />
        </mxCell>
        <mxCell id="fCsSd8bav656cwg4OeE4-23" style="edgeStyle=orthogonalEdgeStyle;rounded=0;orthogonalLoop=1;jettySize=auto;html=1;entryX=1;entryY=0.5;entryDx=0;entryDy=0;" parent="1" source="fCsSd8bav656cwg4OeE4-13" target="fCsSd8bav656cwg4OeE4-21" edge="1">
          <mxGeometry relative="1" as="geometry">
            <Array as="points">
              <mxPoint x="595" y="-420" />
            </Array>
          </mxGeometry>
        </mxCell>
        <mxCell id="fCsSd8bav656cwg4OeE4-13" value="print = a" style="shape=document;whiteSpace=wrap;html=1;boundedLbl=1;" parent="1" vertex="1">
          <mxGeometry x="535" y="-620" width="120" height="80" as="geometry" />
        </mxCell>
        <mxCell id="fCsSd8bav656cwg4OeE4-22" value="" style="edgeStyle=orthogonalEdgeStyle;rounded=0;orthogonalLoop=1;jettySize=auto;html=1;" parent="1" source="fCsSd8bav656cwg4OeE4-17" target="fCsSd8bav656cwg4OeE4-21" edge="1">
          <mxGeometry relative="1" as="geometry">
            <Array as="points">
              <mxPoint x="275" y="-420" />
            </Array>
          </mxGeometry>
        </mxCell>
        <mxCell id="fCsSd8bav656cwg4OeE4-17" value="print = b" style="shape=document;whiteSpace=wrap;html=1;boundedLbl=1;" parent="1" vertex="1">
          <mxGeometry x="215" y="-620" width="120" height="80" as="geometry" />
        </mxCell>
        <mxCell id="fCsSd8bav656cwg4OeE4-19" value="No" style="text;html=1;align=center;verticalAlign=middle;resizable=0;points=[];autosize=1;strokeColor=none;fillColor=none;" parent="1" vertex="1">
          <mxGeometry x="345" y="-615" width="40" height="30" as="geometry" />
        </mxCell>
        <mxCell id="fCsSd8bav656cwg4OeE4-20" value="Yes" style="text;html=1;align=center;verticalAlign=middle;resizable=0;points=[];autosize=1;strokeColor=none;fillColor=none;" parent="1" vertex="1">
          <mxGeometry x="485" y="-615" width="40" height="30" as="geometry" />
        </mxCell>
        <mxCell id="fCsSd8bav656cwg4OeE4-21" value="Stop" style="ellipse;whiteSpace=wrap;html=1;" parent="1" vertex="1">
          <mxGeometry x="375" y="-450" width="120" height="60" as="geometry" />
        </mxCell>
      </root>
    </mxGraphModel>
  </diagram>
</mxfile>
